<svg xmlns="http://www.w3.org/2000/svg" width="1120" height="500" viewBox="0 0 1120 500">
  <rect width="1120" height="500" fill="#20242b"/>
  <rect x="24" y="22" width="1072" height="456" rx="8" fill="#2d333d" stroke="#505967"/>
  <text x="48" y="58" fill="#f0f3f6" font-family="sans-serif" font-size="22" font-weight="bold">Unity 2D Sprite Converter</text>
  <text x="48" y="102" fill="#c7cdd6" font-family="sans-serif" font-size="15">Unity folder</text>
  <rect x="166" y="78" width="790" height="34" rx="4" fill="#20242b" stroke="#596270"/>
  <text x="180" y="100" fill="#aeb7c3" font-family="monospace" font-size="14">/Projects/MyUnityGame/Assets/Sprites</text>
  <rect x="970" y="78" width="100" height="34" rx="4" fill="#414a57"/><text x="989" y="100" fill="#fff" font-family="sans-serif" font-size="14">Browse...</text>
  <text x="48" y="148" fill="#c7cdd6" font-family="sans-serif" font-size="15">Godot output</text>
  <rect x="166" y="124" width="790" height="34" rx="4" fill="#20242b" stroke="#596270"/>
  <text x="180" y="146" fill="#aeb7c3" font-family="monospace" font-size="14">res://converted_unity_sprites</text>
  <rect x="970" y="124" width="100" height="34" rx="4" fill="#414a57"/><text x="989" y="146" fill="#fff" font-family="sans-serif" font-size="14">Browse...</text>
  <rect x="48" y="178" width="112" height="36" rx="4" fill="#478cbf"/><text x="66" y="202" fill="#fff" font-family="sans-serif" font-size="14">Scan Folder</text>
  <rect x="184" y="188" width="16" height="16" rx="2" fill="#20242b" stroke="#778291"/><text x="210" y="202" fill="#d6dbe2" font-family="sans-serif" font-size="14">Create AnimatedSprite2D scenes</text>
  <rect x="890" y="178" width="180" height="36" rx="4" fill="#478cbf"/><text x="923" y="202" fill="#fff" font-family="sans-serif" font-size="14">Convert Selected</text>
  <rect x="48" y="232" width="1022" height="174" rx="3" fill="#242932" stroke="#596270"/>
  <rect x="48" y="232" width="1022" height="38" fill="#373e49"/>
  <g fill="#e2e6eb" font-family="sans-serif" font-size="14"><text x="64" y="257">Convert</text><text x="150" y="257">Asset</text><text x="430" y="257">Type</text><text x="650" y="257">Animations</text><text x="780" y="257">Frames</text><text x="900" y="257">Status</text></g>
  <g fill="#cbd2db" font-family="sans-serif" font-size="14"><text x="67" y="300">☑</text><text x="150" y="300">hero</text><text x="430" y="300">Sprite Library</text><text x="680" y="300">5</text><text x="797" y="300">26</text><text x="900" y="300" fill="#73d69b">Ready</text><text x="67" y="342">☑</text><text x="150" y="342">fire_effect</text><text x="430" y="342">Animation Clips</text><text x="680" y="342">2</text><text x="797" y="342">19</text><text x="900" y="342" fill="#73d69b">Ready</text><text x="67" y="384">☐</text><text x="150" y="384">broken_sheet</text><text x="430" y="384">Sprite Library</text><text x="680" y="384">0</text><text x="797" y="384">0</text><text x="900" y="384" fill="#f3bf69">Warning</text></g>
  <text x="48" y="442" fill="#b9c1cc" font-family="sans-serif" font-size="14">Found 3 compatible sources, 2 ready to convert.</text>
</svg>
